<?xml version="1.0" encoding="UTF-8"?>
<!DOCTYPE svg PUBLIC "-//W3C//DTD SVG 1.1//EN" "http://www.w3.org/Graphics/SVG/1.1/DTD/svg11.dtd">
<!-- Creator: CorelDRAW X6 -->
<svg xmlns="http://www.w3.org/2000/svg" xml:space="preserve" width="7.63889in" height="8.19444in" version="1.1" style="shape-rendering:geometricPrecision; text-rendering:geometricPrecision; image-rendering:optimizeQuality; fill-rule:evenodd; clip-rule:evenodd"
viewBox="0 0 7639 8194"
 xmlns:xlink="http://www.w3.org/1999/xlink">
 <defs>
  <style type="text/css">
   <![CDATA[
    .fil19 {fill:#2F1F1E;fill-rule:nonzero}
    .fil17 {fill:#D76280;fill-rule:nonzero}
    .fil1 {fill:#FCE8F1;fill-rule:nonzero}
    .fil45 {fill:#FEFEFE;fill-rule:nonzero}
    .fil51 {fill:white;fill-rule:nonzero}
    .fil53 {fill:url(#id0)}
    .fil46 {fill:url(#id1)}
    .fil47 {fill:url(#id2)}
    .fil57 {fill:url(#id3)}
    .fil54 {fill:url(#id4)}
    .fil52 {fill:url(#id5)}
    .fil58 {fill:url(#id6)}
    .fil48 {fill:url(#id7)}
    .fil22 {fill:url(#id8)}
    .fil5 {fill:url(#id9)}
    .fil44 {fill:url(#id10)}
    .fil50 {fill:url(#id11)}
    .fil43 {fill:url(#id12)}
    .fil4 {fill:url(#id13)}
    .fil21 {fill:url(#id14)}
    .fil8 {fill:url(#id15)}
    .fil6 {fill:url(#id16)}
    .fil2 {fill:url(#id17)}
    .fil7 {fill:url(#id18)}
    .fil49 {fill:url(#id19)}
    .fil55 {fill:url(#id20)}
    .fil15 {fill:url(#id21)}
    .fil10 {fill:url(#id22)}
    .fil9 {fill:url(#id23)}
    .fil36 {fill:url(#id24)}
    .fil16 {fill:url(#id25)}
    .fil11 {fill:url(#id26)}
    .fil12 {fill:url(#id27)}
    .fil3 {fill:url(#id28)}
    .fil24 {fill:url(#id29)}
    .fil26 {fill:url(#id30)}
    .fil35 {fill:url(#id31)}
    .fil34 {fill:url(#id32)}
    .fil13 {fill:url(#id33)}
    .fil30 {fill:url(#id34)}
    .fil27 {fill:url(#id35)}
    .fil33 {fill:url(#id36)}
    .fil32 {fill:url(#id37)}
    .fil14 {fill:url(#id38)}
    .fil31 {fill:url(#id39)}
    .fil25 {fill:url(#id40)}
    .fil23 {fill:url(#id41)}
    .fil29 {fill:url(#id42)}
    .fil28 {fill:url(#id43)}
    .fil41 {fill:url(#id44)}
    .fil40 {fill:url(#id45)}
    .fil39 {fill:url(#id46)}
    .fil38 {fill:url(#id47)}
    .fil37 {fill:url(#id48)}
    .fil20 {fill:url(#id49)}
    .fil59 {fill:url(#id50)}
    .fil56 {fill:url(#id51)}
    .fil42 {fill:url(#id52)}
    .fil18 {fill:url(#id53)}
    .fil0 {fill:url(#id54)}
   ]]>
  </style>
  <linearGradient id="id0" gradientUnits="userSpaceOnUse" x1="452.78" y1="2847.83" x2="3348.36" y2="2847.83">
   <stop offset="0" style="stop-color:#DF2A86"/>
   <stop offset="1" style="stop-color:#EE7FAC"/>
  </linearGradient>
  <linearGradient id="id1" gradientUnits="userSpaceOnUse" x1="4613.04" y1="4170.17" x2="4613.04" y2="-658.331">
   <stop offset="0" style="stop-color:#ED2B8D"/>
   <stop offset="1" style="stop-color:#EE7FAC"/>
  </linearGradient>
  <linearGradient id="id2" gradientUnits="userSpaceOnUse" x1="4438.58" y1="4171.69" x2="4438.58" y2="-693.78">
   <stop offset="0" style="stop-color:#F17CAC"/>
   <stop offset="1" style="stop-color:#FCE8EB"/>
  </linearGradient>
  <linearGradient id="id3" gradientUnits="userSpaceOnUse" x1="4391.35" y1="4714.9" x2="4391.35" y2="1916.1">
   <stop offset="0" style="stop-color:#EC278C"/>
   <stop offset="0.85098" style="stop-color:#F9CEDC"/>
   <stop offset="1" style="stop-color:#FFFEF8"/>
  </linearGradient>
  <linearGradient id="id4" gradientUnits="userSpaceOnUse" x1="4869.64" y1="1071.74" x2="689.11" y2="1071.74">
   <stop offset="0" style="stop-color:#EC278C"/>
   <stop offset="1" style="stop-color:#EE87B1"/>
  </linearGradient>
  <linearGradient id="id5" gradientUnits="userSpaceOnUse" x1="5862.79" y1="3442.15" x2="-338.76" y2="3442.15">
   <stop offset="0" style="stop-color:#EF589C"/>
   <stop offset="1" style="stop-color:#F9CBDA"/>
  </linearGradient>
  <linearGradient id="id6" gradientUnits="userSpaceOnUse" xlink:href="#id0" x1="3966.22" y1="4686.92" x2="3966.22" y2="1944.08">
  </linearGradient>
  <linearGradient id="id7" gradientUnits="userSpaceOnUse" xlink:href="#id1" x1="779.094" y1="1071.74" x2="5098.5" y2="1071.74">
  </linearGradient>
  <linearGradient id="id8" gradientUnits="userSpaceOnUse" x1="3077.13" y1="6583.8" x2="3568.87" y2="6575.21">
   <stop offset="0" style="stop-color:#F7B0BE"/>
   <stop offset="0.0705882" style="stop-color:#EE8CA4"/>
   <stop offset="0.160784" style="stop-color:#E2657F"/>
   <stop offset="0.301961" style="stop-color:#DF4D71"/>
   <stop offset="0.478431" style="stop-color:#E2637C"/>
   <stop offset="0.639216" style="stop-color:#E98098"/>
   <stop offset="0.901961" style="stop-color:#F7B0BE"/>
   <stop offset="1" style="stop-color:#FEEDDF"/>
  </linearGradient>
  <linearGradient id="id9" gradientUnits="userSpaceOnUse" x1="-27.7559" y1="5084.07" x2="712.496" y2="4505.72">
   <stop offset="0" style="stop-color:#EE8CA4"/>
   <stop offset="0.0901961" style="stop-color:#E2657F"/>
   <stop offset="0.258824" style="stop-color:#DC3166"/>
   <stop offset="0.478431" style="stop-color:#E2637C"/>
   <stop offset="0.639216" style="stop-color:#E98098"/>
   <stop offset="1" style="stop-color:#F7B0BE"/>
  </linearGradient>
  <linearGradient id="id10" gradientUnits="userSpaceOnUse" x1="4930.26" y1="-477.969" x2="5670.42" y2="3719.69">
   <stop offset="0" style="stop-color:#F066A2"/>
   <stop offset="1" style="stop-color:#FCE4E9"/>
  </linearGradient>
  <linearGradient id="id11" gradientUnits="userSpaceOnUse" x1="5729.24" y1="4092.16" x2="-478.437" y2="2885.51">
   <stop offset="0" style="stop-color:#ED2B8D"/>
   <stop offset="0.788235" style="stop-color:#EF589A"/>
   <stop offset="1" style="stop-color:#EE7FAC"/>
  </linearGradient>
  <linearGradient id="id12" gradientUnits="userSpaceOnUse" x1="3323.81" y1="1001.22" x2="7377.26" y2="2240.49">
   <stop offset="0" style="stop-color:#EC278C"/>
   <stop offset="1" style="stop-color:#F5A2C1"/>
  </linearGradient>
  <linearGradient id="id13" gradientUnits="userSpaceOnUse" xlink:href="#id9" x1="92.2913" y1="5093.53" x2="1019.02" y2="4420.22">
  </linearGradient>
  <linearGradient id="id14" gradientUnits="userSpaceOnUse" xlink:href="#id8" x1="3515.41" y1="6589.05" x2="3989.83" y2="6605.61">
  </linearGradient>
  <linearGradient id="id15" gradientUnits="userSpaceOnUse" x1="7669.13" y1="5004.74" x2="7152.67" y2="4656.37">
   <stop offset="0" style="stop-color:#DC3165"/>
   <stop offset="0.301961" style="stop-color:#DC3F6B"/>
   <stop offset="0.501961" style="stop-color:#E65880"/>
   <stop offset="1" style="stop-color:#F497AD"/>
  </linearGradient>
  <linearGradient id="id16" gradientUnits="userSpaceOnUse" xlink:href="#id9" x1="263.134" y1="5079.42" x2="1341.33" y2="4352.17">
  </linearGradient>
  <linearGradient id="id17" gradientUnits="userSpaceOnUse" xlink:href="#id9" x1="469.76" y1="5067" x2="1651.39" y2="4328.64">
  </linearGradient>
  <linearGradient id="id18" gradientUnits="userSpaceOnUse" xlink:href="#id15" x1="7550.49" y1="5008.3" x2="6916.17" y2="4627.16">
  </linearGradient>
  <linearGradient id="id19" gradientUnits="userSpaceOnUse" x1="3427.05" y1="3935.48" x2="-247.917" y2="3935.48">
   <stop offset="0" style="stop-color:#ED2D8E"/>
   <stop offset="1" style="stop-color:#F9CBDA"/>
  </linearGradient>
  <linearGradient id="id20" gradientUnits="userSpaceOnUse" x1="5207.9" y1="4158.38" x2="5016.83" y2="2340.49">
   <stop offset="0" style="stop-color:#EC278C"/>
   <stop offset="0.721569" style="stop-color:#F9CEDC"/>
   <stop offset="1" style="stop-color:#FFFEF8"/>
  </linearGradient>
  <linearGradient id="id21" gradientUnits="userSpaceOnUse" xlink:href="#id9" x1="726.705" y1="4992.59" x2="1917.85" y2="4332.33">
  </linearGradient>
  <linearGradient id="id22" gradientUnits="userSpaceOnUse" xlink:href="#id15" x1="7199.22" y1="5024.22" x2="6335.11" y2="4564.76">
  </linearGradient>
  <linearGradient id="id23" gradientUnits="userSpaceOnUse" xlink:href="#id15" x1="7399.25" y1="4993.54" x2="6647.11" y2="4593.63">
  </linearGradient>
  <linearGradient id="id24" gradientUnits="userSpaceOnUse" xlink:href="#id8" x1="5857.63" y1="5614.38" x2="7709.47" y2="6640.88">
  </linearGradient>
  <linearGradient id="id25" gradientUnits="userSpaceOnUse" xlink:href="#id9" x1="1031.75" y1="4965.31" x2="2228.06" y2="4355.76">
  </linearGradient>
  <linearGradient id="id26" gradientUnits="userSpaceOnUse" xlink:href="#id15" x1="6991.22" y1="5000.18" x2="6108.9" y2="4550.61">
  </linearGradient>
  <linearGradient id="id27" gradientUnits="userSpaceOnUse" xlink:href="#id15" x1="6785.71" y1="5009.23" x2="5806" y2="4510.05">
  </linearGradient>
  <linearGradient id="id28" gradientUnits="userSpaceOnUse" xlink:href="#id15" x1="5509.51" y1="4462.8" x2="6531.02" y2="4983.29">
  </linearGradient>
  <linearGradient id="id29" gradientUnits="userSpaceOnUse" xlink:href="#id8" x1="2619.44" y1="6604.65" x2="3352.61" y2="6514.63">
  </linearGradient>
  <linearGradient id="id30" gradientUnits="userSpaceOnUse" xlink:href="#id8" x1="-54.878" y1="6511.36" x2="1720.67" y2="5606.68">
  </linearGradient>
  <linearGradient id="id31" gradientUnits="userSpaceOnUse" xlink:href="#id8" x1="5765.1" y1="5776.93" x2="7388.61" y2="6676.85">
  </linearGradient>
  <linearGradient id="id32" gradientUnits="userSpaceOnUse" xlink:href="#id8" x1="5657.13" y1="5853.65" x2="7233.91" y2="6692.05">
  </linearGradient>
  <linearGradient id="id33" gradientUnits="userSpaceOnUse" xlink:href="#id15" x1="5260.66" y1="4523.49" x2="6214.38" y2="4928.33">
  </linearGradient>
  <linearGradient id="id34" gradientUnits="userSpaceOnUse" xlink:href="#id8" x1="471.295" y1="6626.65" x2="2037.35" y2="5896.38">
  </linearGradient>
  <linearGradient id="id35" gradientUnits="userSpaceOnUse" xlink:href="#id8" x1="262.311" y1="6587.67" x2="1841.93" y2="5817.24">
  </linearGradient>
  <linearGradient id="id36" gradientUnits="userSpaceOnUse" xlink:href="#id8" x1="5545.64" y1="5950.72" x2="7011.04" y2="6665.45">
  </linearGradient>
  <linearGradient id="id37" gradientUnits="userSpaceOnUse" xlink:href="#id8" x1="5341.55" y1="6090.79" x2="6743.42" y2="6714.94">
  </linearGradient>
  <linearGradient id="id38" gradientUnits="userSpaceOnUse" xlink:href="#id15" x1="5062.76" y1="4524.6" x2="5973.59" y2="4892.6">
  </linearGradient>
  <linearGradient id="id39" gradientUnits="userSpaceOnUse" xlink:href="#id8" x1="3882.07" y1="6567.39" x2="4469.47" y2="6639.51">
  </linearGradient>
  <linearGradient id="id40" gradientUnits="userSpaceOnUse" xlink:href="#id8" x1="2188.28" y1="6620.99" x2="3095.63" y2="6444.62">
  </linearGradient>
  <linearGradient id="id41" gradientUnits="userSpaceOnUse" xlink:href="#id8" x1="1414.37" y1="6672.04" x2="2661.43" y2="6242.63">
  </linearGradient>
  <linearGradient id="id42" gradientUnits="userSpaceOnUse" xlink:href="#id8" x1="1050.56" y1="6670.2" x2="2420.63" y2="6144.28">
  </linearGradient>
  <linearGradient id="id43" gradientUnits="userSpaceOnUse" xlink:href="#id8" x1="745.906" y1="6631.06" x2="2166.94" y2="6027.87">
  </linearGradient>
  <linearGradient id="id44" gradientUnits="userSpaceOnUse" xlink:href="#id8" x1="5145.68" y1="6169.25" x2="6453.04" y2="6724.2">
  </linearGradient>
  <linearGradient id="id45" gradientUnits="userSpaceOnUse" xlink:href="#id8" x1="4916.46" y1="6246.96" x2="6147.69" y2="6719.59">
  </linearGradient>
  <linearGradient id="id46" gradientUnits="userSpaceOnUse" xlink:href="#id8" x1="4677.06" y1="6365.28" x2="5741.5" y2="6690.71">
  </linearGradient>
  <linearGradient id="id47" gradientUnits="userSpaceOnUse" xlink:href="#id8" x1="4397.4" y1="6443.07" x2="5345.17" y2="6679.37">
  </linearGradient>
  <linearGradient id="id48" gradientUnits="userSpaceOnUse" xlink:href="#id8" x1="4127.24" y1="6509.98" x2="4944.24" y2="6683.64">
  </linearGradient>
  <linearGradient id="id49" gradientUnits="userSpaceOnUse" xlink:href="#id8" x1="1785.17" y1="6655.12" x2="2865.97" y2="6345.2">
  </linearGradient>
  <linearGradient id="id50" gradientUnits="userSpaceOnUse" x1="1508.39" y1="4416.08" x2="1166.23" y2="3283.07">
   <stop offset="0" style="stop-color:#F8BED2"/>
   <stop offset="1" style="stop-color:#FFFEF8"/>
  </linearGradient>
  <linearGradient id="id51" gradientUnits="userSpaceOnUse" xlink:href="#id1" x1="5318.69" y1="4192.03" x2="4715.75" y2="2336.35">
  </linearGradient>
  <radialGradient id="id52" gradientUnits="userSpaceOnUse" cx="4408.48" cy="1199.74" r="2237.86" fx="4408.48" fy="1199.74">
   <stop offset="0" style="stop-color:#FFFEF8"/>
   <stop offset="0.301961" style="stop-color:#FFFEF8"/>
   <stop offset="0.490196" style="stop-color:#FAD5E0"/>
   <stop offset="0.529412" style="stop-color:#F069A3"/>
   <stop offset="1" style="stop-color:#F069A3"/>
  </radialGradient>
  <radialGradient id="id53" gradientUnits="userSpaceOnUse" cx="3755.83" cy="1381.66" r="3239.28" fx="3755.83" fy="1381.66">
   <stop offset="0" style="stop-color:#3C2F2D"/>
   <stop offset="0.760784" style="stop-color:#3C2F2D"/>
   <stop offset="0.870588" style="stop-color:#A87B6A"/>
   <stop offset="1" style="stop-color:#A87B6A"/>
  </radialGradient>
  <radialGradient id="id54" gradientUnits="userSpaceOnUse" cx="3837.7" cy="7379.53" r="3085.63" fx="3837.7" fy="7379.53">
   <stop offset="0" style="stop-color:#F497AD"/>
   <stop offset="1" style="stop-color:#FEFEFE"/>
  </radialGradient>
 </defs>
 <g id="Layer_x0020_1">
  <metadata id="CorelCorpID_0Corel-Layer"/>
  <path class="fil0" d="M6986 7380c0,-450 -1410,-815 -3149,-815 -1739,0 -3149,365 -3149,815 0,450 1410,815 3149,815 1739,0 3149,-365 3149,-815z"/>
  <path class="fil1" d="M7513 4554c14,-94 -53,-147 -136,-112 -12,-117 -95,-170 -205,-115 -38,-97 -121,-132 -216,-91 -31,-122 -141,-124 -208,-72 -65,-119 -159,-136 -257,-74 -82,-145 -214,-175 -315,-75 -57,-88 -156,-123 -242,-49 0,0 0,0 0,-1 -69,-126 -203,-126 -276,-48 0,0 0,0 0,0 -1341,-218 -3082,-261 -4269,-47 -131,-74 -249,-70 -322,68 -143,-93 -285,-40 -303,87 -128,-63 -233,-4 -260,105 -131,-66 -207,-2 -211,124 -101,-23 -177,72 -163,158 -115,15 -157,203 -108,305 107,185 7536,149 7616,15 43,-73 -11,-206 -123,-178z"/>
  <path class="fil2" d="M503 4155l809 1189c98,24 200,45 305,66l-854 -1360c-128,-63 -233,-4 -260,105z"/>
  <path class="fil3" d="M6175 4039l-625 1469c100,-12 198,-26 294,-41l646 -1353c-82,-145 -214,-175 -315,-75z"/>
  <path class="fil4" d="M128 4437l568 716c93,37 193,72 299,105l-704 -979c-101,-23 -177,72 -163,158z"/>
  <path class="fil5" d="M37 4732c107,185 340,292 660,421l-568 -716c-115,15 -140,193 -92,295z"/>
  <path class="fil6" d="M292 4279l704 979c100,31 206,59 316,86l-809 -1189c-131,-66 -207,-2 -211,124z"/>
  <path class="fil7" d="M7377 4466l-438 738c80,-30 155,-61 224,-93l350 -532c14,-94 -53,-147 -136,-112z"/>
  <path class="fil8" d="M7616 4756c43,-73 9,-206 -103,-178l-350 532c216,-102 373,-221 453,-354z"/>
  <path class="fil9" d="M7172 4351l-502 940c95,-27 185,-57 270,-88l438 -738c-12,-117 -95,-170 -205,-115z"/>
  <path class="fil10" d="M6955 4260l-593 1110c107,-24 210,-50 307,-78l502 -940c-38,-97 -121,-132 -216,-91z"/>
  <path class="fil11" d="M6747 4188l-603 1227c74,-14 147,-29 218,-45l593 -1110c-31,-122 -141,-124 -208,-72z"/>
  <path class="fil12" d="M6490 4114l-646 1353c103,-16 203,-33 300,-52l603 -1227c-65,-119 -159,-136 -257,-74z"/>
  <path class="fil13" d="M6175 4039c-57,-88 -156,-123 -242,-49 0,0 0,0 0,-1l-634 1546c85,-9 169,-18 251,-28l625 -1469z"/>
  <path class="fil14" d="M5657 3941c0,0 0,0 0,0l-554 1613c66,-6 132,-12 197,-18l634 -1546c-69,-126 -203,-126 -276,-48z"/>
  <path class="fil15" d="M764 4050l854 1360c86,16 173,32 263,46l-814 -1493c-143,-93 -285,-40 -303,87z"/>
  <path class="fil16" d="M1066 3962l814 1493c102,16 206,31 312,45l-805 -1606c-131,-74 -249,-70 -322,68z"/>
  <path class="fil17" d="M1388 3895l805 1606c909,116 1967,133 2910,53l554 -1613c-1341,-218 -3082,-261 -4269,-47z"/>
  <path class="fil18" d="M525 4585c293,-1587 6090,-1257 6310,207 95,384 12,574 -61,671 -525,769 -5102,769 -5944,73 -183,-134 -378,-452 -305,-952z"/>
  <path class="fil19" d="M3627 4893c195,140 378,279 656,350 555,142 1016,59 1134,-89 82,-102 141,-325 247,-518 153,216 737,209 768,146 35,-63 86,-207 54,-348l-5441 -133c385,507 1627,856 2582,591z"/>
  <path class="fil1" d="M7631 4717c-1,4 -8,11 -10,11 -88,9 -177,110 -192,185 -31,-63 -87,-55 -114,62 -54,-84 -109,-113 -166,80 -65,-118 -143,-138 -218,85 -40,-122 -162,-189 -256,82 -77,-114 -169,-133 -279,74 -99,-148 -213,-156 -309,68 -117,-181 -260,-163 -401,72 -134,-188 -252,-152 -380,54 -116,-195 -260,-114 -397,43 -144,-153 -280,-178 -453,35 -154,-202 -308,-190 -468,19 -142,-227 -343,-234 -468,3 -144,-267 -330,-227 -436,-13 -162,-284 -333,-226 -448,-31 -141,-289 -333,-243 -424,-48 -184,-283 -282,-238 -386,-63 -173,-279 -255,-230 -347,-75 -125,-268 -278,-219 -373,-105 -78,-264 -209,-197 -293,-105 -72,-256 -143,-204 -260,-117 -5,-173 -102,-191 -211,-117 -104,-286 -195,-241 -300,-204 -3,1 -12,-4 -14,-8 -2,-1 -4,-1 -6,1 4,11 -7,12 17,27 130,171 789,1020 1452,2587 34,38 4539,90 4565,61 817,-1622 1442,-2424 1563,-2623 14,-15 19,-22 22,-30 -3,0 -4,-11 -8,-10z"/>
  <path class="fil20" d="M1824 5471l775 2251c74,10 151,19 229,28l-617 -2215c-184,-283 -282,-238 -386,-63z"/>
  <path class="fil21" d="M3519 5627l45 2171c111,3 223,5 334,5l89 -2179c-142,-227 -343,-234 -468,3z"/>
  <path class="fil22" d="M3083 5614l255 2175c75,4 150,7 225,9l-45 -2171c-144,-267 -330,-227 -436,-13z"/>
  <path class="fil23" d="M1477 5397l891 2289c74,13 152,25 231,36l-775 -2251c-173,-279 -255,-230 -347,-75z"/>
  <path class="fil24" d="M2634 5583l439 2190c87,7 175,12 264,17l-255 -2175c-162,-284 -333,-226 -448,-31z"/>
  <path class="fil25" d="M2210 5534l617 2215c80,9 163,16 246,23l-439 -2190c-141,-289 -333,-243 -424,-48z"/>
  <path class="fil26" d="M37 4732c61,85 745,952 1452,2624 34,38 81,73 140,106l-1289 -2509c-108,-297 -212,-267 -303,-221z"/>
  <path class="fil27" d="M340 4953l1289 2509c40,22 85,44 135,64l-1213 -2457c-5,-173 -102,-191 -211,-117z"/>
  <path class="fil28" d="M811 5186l1147 2406c46,13 94,26 144,38l-998 -2339c-78,-264 -209,-197 -293,-105z"/>
  <path class="fil29" d="M1104 5292l998 2339c83,20 172,38 266,55l-891 -2289c-125,-268 -278,-219 -373,-105z"/>
  <path class="fil30" d="M551 5070l1213 2457c58,24 123,46 193,66l-1147 -2406c-72,-256 -143,-204 -260,-117z"/>
  <path class="fil31" d="M3987 5625l-89 2179c89,0 178,-1 266,-3l291 -2195c-154,-202 -308,-190 -468,19z"/>
  <path class="fil32" d="M6395 5333l-984 2346c77,-16 149,-33 215,-51l1048 -2369c-77,-114 -169,-133 -279,74z"/>
  <path class="fil33" d="M6674 5259l-1048 2369c41,-11 80,-23 116,-36l1188 -2415c-40,-122 -162,-189 -256,82z"/>
  <path class="fil34" d="M6930 5177l-1188 2415c34,-12 67,-24 97,-37l1309 -2463c-65,-118 -143,-138 -218,85z"/>
  <path class="fil35" d="M7149 5092l-1309 2463c42,-18 79,-36 112,-56l1364 -2487c-54,-84 -109,-113 -166,80z"/>
  <path class="fil36" d="M7429 4950c-31,-63 -87,-55 -114,62l-1364 2487c43,-26 77,-53 103,-82 867,-1721 1501,-2526 1562,-2661 -59,6 -171,114 -187,193z"/>
  <path class="fil37" d="M4454 5605l-291 2195c92,-2 184,-6 274,-10l470 -2220c-144,-153 -280,-178 -453,35z"/>
  <path class="fil38" d="M4908 5571l-470 2220c101,-5 200,-12 296,-20l572 -2243c-116,-195 -260,-114 -397,43z"/>
  <path class="fil39" d="M5305 5527l-572 2243c84,-7 166,-15 245,-24l707 -2273c-134,-188 -252,-152 -380,54z"/>
  <path class="fil40" d="M5685 5473l-707 2273c78,-9 153,-19 225,-30l882 -2315c-117,-181 -260,-163 -401,72z"/>
  <path class="fil41" d="M6086 5401l-882 2315c72,-11 141,-23 207,-37l984 -2346c-99,-148 -213,-156 -309,68z"/>
  <path class="fil42" d="M4870 499c-83,-1340 -4192,130 -2008,2445 1075,673 909,-24 838,-272 -2492,-980 461,-3531 1169,-2173z"/>
  <path class="fil43" d="M6204 3227c1051,-1287 -503,-1782 -1176,-1995 -1582,-590 -182,-768 -182,-768 0,0 -1287,-850 -1134,543 94,756 2315,2622 2492,2220z"/>
  <path class="fil44" d="M6204 3227c1051,-1287 -603,-1747 -1276,-1960 -1582,-590 -315,-884 -82,-804 -77,-133 -1287,-850 -1134,543 94,756 2315,2622 2492,2220z"/>
  <path class="fil45" d="M6464 3239c-355,-1464 -1334,-874 -2326,-1960 -992,-1086 354,-1060 732,-779 -1394,-1157 -2326,791 -1795,1429 531,638 3615,2241 3389,1311z"/>
  <path class="fil46" d="M6464 3239c-314,-1334 -1394,-861 -2386,-1947 -992,-1086 422,-1123 791,-793 -1394,-1157 -2326,791 -1795,1429 531,638 3608,2242 3389,1311z"/>
  <path class="fil47" d="M6121 3239c-213,-933 -1507,-545 -2321,-1771 -745,-1121 452,-1427 1046,-1005 -1394,-1157 -2303,827 -1771,1464 531,638 3259,2244 3047,1311z"/>
  <path class="fil45" d="M3901 2908c-3212,-1677 614,-3803 968,-2409 -937,-826 -2001,364 -1523,1275 217,414 1287,508 1842,1051 0,142 -602,213 -1287,83z"/>
  <path class="fil48" d="M3901 2908c-3212,-1677 614,-3803 968,-2409 -937,-870 -2061,347 -1583,1258 348,614 1347,525 1902,1068 0,142 -602,213 -1287,83z"/>
  <path class="fil49" d="M1280 2465c-1931,1382 602,2941 2551,2214 -1329,-726 -2852,-1453 -2551,-2214z"/>
  <path class="fil50" d="M5473 4025c-1183,-527 -2724,-1207 -2751,-1239 -317,-380 -466,-734 -494,-1055 -2840,933 -451,2376 646,2665 650,154 827,567 1382,709 555,142 1016,59 1134,-89 118,-148 189,-549 425,-744 48,-40 -92,-126 -341,-247z"/>
  <path class="fil51" d="M5473 4025c-1183,-527 -2724,-1207 -2751,-1239 -316,-377 -465,-730 -494,-1050 -2718,967 -455,2242 938,2571 650,154 579,558 1134,700 555,142 883,-12 1001,-159 118,-148 278,-381 514,-576 48,-40 -92,-126 -341,-247z"/>
  <path class="fil52" d="M5473 4025c-1183,-527 -2724,-1207 -2751,-1239 -316,-378 -465,-731 -494,-1051 -2567,901 -418,2182 973,2510 650,154 543,620 1098,762 555,142 883,-12 1001,-159 118,-148 278,-381 514,-576 48,-40 -92,-126 -341,-247z"/>
  <path class="fil53" d="M3157 3900c79,19 135,33 173,43 -113,-39 -318,-132 -190,-238 209,-172 -1008,-755 -848,-1664 -31,-99 -51,-195 -61,-289 -1777,803 -450,1822 927,2147z"/>
  <path class="fil54" d="M3901 2908c-3212,-1677 614,-3803 968,-2409 -681,-1013 -2368,213 -1792,1320 337,726 1208,528 1763,1072 0,142 -254,148 -939,18z"/>
  <path class="fil55" d="M2508 2967c690,-593 1752,-555 2681,-354 1440,311 2529,1131 1157,1512 -874,-815 -3696,-685 -3838,-1157z"/>
  <path class="fil56" d="M2573 2997c690,-593 1586,-466 2515,-266 1441,311 2374,939 1258,1393 -874,-815 -3631,-655 -3773,-1128z"/>
  <path class="fil45" d="M2785 2763c-413,-229 -300,-847 -300,-847 0,0 -957,626 -638,1228 319,602 2126,1086 2551,1145 425,59 874,-47 1205,118 35,307 768,307 803,236 850,-1405 -2441,-1227 -3620,-1881z"/>
  <path class="fil57" d="M2762 2811c-549,-289 -278,-895 -278,-895 0,0 -957,626 -638,1228 319,602 2126,1086 2551,1145 425,59 874,-47 1205,118 35,307 768,307 803,236 850,-1405 -2463,-1178 -3642,-1833z"/>
  <path class="fil58" d="M2537 3121c-549,-289 -175,-1154 -53,-1205 -39,7 -957,626 -638,1228 319,602 2126,1086 2551,1145 425,59 874,-47 1205,118 35,307 768,307 803,236 -644,-1346 -2220,-585 -3868,-1523z"/>
  <path class="fil59" d="M792 3174c115,372 464,1116 1409,1352 -1028,-23 -1727,-696 -1409,-1352z"/>
 </g>
</svg>
